<mxfile host="Electron" modified="2023-10-30T11:57:02.910Z" agent="Mozilla/5.0 (Windows NT 10.0; Win64; x64) AppleWebKit/537.36 (KHTML, like Gecko) draw.io/21.7.5 Chrome/114.0.5735.289 Electron/25.8.1 Safari/537.36" etag="jGFROB_n9v9QW1_pe2VA" version="21.7.5" type="device">
  <diagram name="Page-1" id="mJOgbL4XX99zhUlYmv5t">
    <mxGraphModel dx="2085" dy="715" grid="1" gridSize="10" guides="1" tooltips="1" connect="1" arrows="1" fold="1" page="1" pageScale="1" pageWidth="850" pageHeight="1100" math="0" shadow="0">
      <root>
        <mxCell id="0" />
        <mxCell id="1" parent="0" />
        <mxCell id="HoEnoRXHbvW5foiIECkT-1" value="&lt;b&gt;&lt;u&gt;Canvas Viewer&lt;/u&gt;&lt;/b&gt;&lt;br&gt;&lt;br&gt;contains/represents all elements" style="whiteSpace=wrap;html=1;aspect=fixed;" vertex="1" parent="1">
          <mxGeometry x="-670" y="60" width="380" height="380" as="geometry" />
        </mxCell>
        <mxCell id="HoEnoRXHbvW5foiIECkT-2" value="&lt;b&gt;&lt;u&gt;Command Prompt&lt;/u&gt;&lt;/b&gt;&lt;br&gt;text output (prompts) " style="rounded=0;whiteSpace=wrap;html=1;" vertex="1" parent="1">
          <mxGeometry x="-670" y="440" width="380" height="40" as="geometry" />
        </mxCell>
        <mxCell id="HoEnoRXHbvW5foiIECkT-3" value="&lt;b&gt;&lt;u&gt;Menubar&lt;/u&gt;&lt;/b&gt;&lt;br&gt;access to functionality and information" style="rounded=0;whiteSpace=wrap;html=1;" vertex="1" parent="1">
          <mxGeometry x="-790" y="30" width="500" height="30" as="geometry" />
        </mxCell>
        <mxCell id="HoEnoRXHbvW5foiIECkT-4" value="&lt;u style=&quot;&quot;&gt;Selector&lt;br&gt;&lt;/u&gt;creates groups" style="rounded=0;whiteSpace=wrap;html=1;strokeWidth=0;" vertex="1" parent="1">
          <mxGeometry x="-790" y="180" width="120" height="80" as="geometry" />
        </mxCell>
        <mxCell id="HoEnoRXHbvW5foiIECkT-5" value="&lt;u style=&quot;&quot;&gt;Grop Modifier&lt;br&gt;&lt;/u&gt;works with groups&lt;br&gt;&lt;br&gt;[&amp;nbsp; ]undo &lt;br&gt;[&amp;nbsp; ]redo&lt;br&gt;&lt;br&gt;[X]move&lt;br&gt;[&amp;nbsp; ]rotate&lt;br&gt;[&amp;nbsp; ]mirror&lt;br&gt;[&amp;nbsp; ]scale&lt;br&gt;[&amp;nbsp; ]fill&lt;br&gt;[&amp;nbsp; ]union&lt;br&gt;[&amp;nbsp; ]difference&lt;br&gt;[&amp;nbsp; ]split" style="rounded=0;whiteSpace=wrap;html=1;strokeWidth=0;" vertex="1" parent="1">
          <mxGeometry x="-790" y="260" width="120" height="260" as="geometry" />
        </mxCell>
        <mxCell id="HoEnoRXHbvW5foiIECkT-6" value="&lt;u style=&quot;&quot;&gt;Element&lt;/u&gt;&lt;br&gt;contains preset states for elements to be used on the canvas" style="rounded=0;whiteSpace=wrap;html=1;strokeWidth=0;" vertex="1" parent="1">
          <mxGeometry x="-790" y="60" width="120" height="120" as="geometry" />
        </mxCell>
        <mxCell id="HoEnoRXHbvW5foiIECkT-7" value="File" style="text;html=1;strokeColor=none;fillColor=none;align=center;verticalAlign=middle;whiteSpace=wrap;rounded=0;" vertex="1" parent="1">
          <mxGeometry x="-790" y="30" width="60" height="30" as="geometry" />
        </mxCell>
        <mxCell id="HoEnoRXHbvW5foiIECkT-8" value="" style="rounded=0;whiteSpace=wrap;html=1;fillColor=none;strokeWidth=1;" vertex="1" parent="1">
          <mxGeometry x="-790" y="60" width="120" height="460" as="geometry" />
        </mxCell>
        <mxCell id="HoEnoRXHbvW5foiIECkT-9" value="Help" style="text;html=1;strokeColor=none;fillColor=none;align=center;verticalAlign=middle;whiteSpace=wrap;rounded=0;" vertex="1" parent="1">
          <mxGeometry x="-740" y="30" width="60" height="30" as="geometry" />
        </mxCell>
        <mxCell id="HoEnoRXHbvW5foiIECkT-10" value="About" style="text;html=1;strokeColor=none;fillColor=none;align=center;verticalAlign=middle;whiteSpace=wrap;rounded=0;" vertex="1" parent="1">
          <mxGeometry x="-680" y="30" width="60" height="30" as="geometry" />
        </mxCell>
        <mxCell id="HoEnoRXHbvW5foiIECkT-11" value="" style="rounded=0;whiteSpace=wrap;html=1;" vertex="1" parent="1">
          <mxGeometry x="-670" y="60" width="380" height="20" as="geometry" />
        </mxCell>
        <mxCell id="HoEnoRXHbvW5foiIECkT-12" value="" style="rounded=0;whiteSpace=wrap;html=1;" vertex="1" parent="1">
          <mxGeometry x="-670" y="80" width="20" height="360" as="geometry" />
        </mxCell>
        <mxCell id="HoEnoRXHbvW5foiIECkT-13" value="0 &lt;span style=&quot;white-space: pre;&quot;&gt;&#x9;&lt;/span&gt;1 &lt;span style=&quot;white-space: pre;&quot;&gt;&#x9;&lt;/span&gt;2&lt;span style=&quot;white-space: pre;&quot;&gt;&#x9;&lt;/span&gt; 3&lt;span style=&quot;white-space: pre;&quot;&gt;&#x9;&lt;/span&gt; 4 &lt;span style=&quot;white-space: pre;&quot;&gt;&#x9;&lt;/span&gt;5" style="text;html=1;strokeColor=none;fillColor=none;align=center;verticalAlign=middle;whiteSpace=wrap;rounded=0;" vertex="1" parent="1">
          <mxGeometry x="-690" y="55" width="200" height="30" as="geometry" />
        </mxCell>
        <mxCell id="HoEnoRXHbvW5foiIECkT-14" value="1 &lt;span style=&quot;white-space: pre;&quot;&gt;&#x9;&lt;/span&gt;2&lt;span style=&quot;white-space: pre;&quot;&gt;&#x9;&lt;/span&gt; 3&lt;span style=&quot;white-space: pre;&quot;&gt;&#x9;&lt;/span&gt; 4 &lt;span style=&quot;white-space: pre;&quot;&gt;&#x9;&lt;/span&gt;5" style="text;html=1;strokeColor=none;fillColor=none;align=center;verticalAlign=middle;whiteSpace=wrap;rounded=0;rotation=90;" vertex="1" parent="1">
          <mxGeometry x="-730" y="130" width="140" height="30" as="geometry" />
        </mxCell>
        <mxCell id="HoEnoRXHbvW5foiIECkT-15" value="&lt;b style=&quot;text-decoration-line: underline;&quot;&gt;Ruler&lt;/b&gt;&lt;br&gt;positioning help for the canvas elements/groups" style="text;html=1;strokeColor=none;fillColor=none;align=center;verticalAlign=middle;whiteSpace=wrap;rounded=0;" vertex="1" parent="1">
          <mxGeometry x="-450" y="100" width="110" height="40" as="geometry" />
        </mxCell>
        <mxCell id="HoEnoRXHbvW5foiIECkT-16" value="" style="endArrow=classic;html=1;rounded=0;exitX=0;exitY=0.25;exitDx=0;exitDy=0;" edge="1" parent="1" source="HoEnoRXHbvW5foiIECkT-15">
          <mxGeometry width="50" height="50" relative="1" as="geometry">
            <mxPoint x="-560" y="120" as="sourcePoint" />
            <mxPoint x="-510" y="70" as="targetPoint" />
          </mxGeometry>
        </mxCell>
        <mxCell id="HoEnoRXHbvW5foiIECkT-17" value="" style="endArrow=classic;html=1;rounded=0;entryX=0.464;entryY=0.5;entryDx=0;entryDy=0;entryPerimeter=0;exitX=0;exitY=0.25;exitDx=0;exitDy=0;" edge="1" parent="1" source="HoEnoRXHbvW5foiIECkT-15" target="HoEnoRXHbvW5foiIECkT-14">
          <mxGeometry width="50" height="50" relative="1" as="geometry">
            <mxPoint x="-450" y="100" as="sourcePoint" />
            <mxPoint x="-510" y="185" as="targetPoint" />
          </mxGeometry>
        </mxCell>
        <mxCell id="HoEnoRXHbvW5foiIECkT-18" value="&lt;b&gt;&lt;u&gt;Command Input&lt;/u&gt;&lt;/b&gt;&lt;br&gt;text input (function parameters)" style="rounded=0;whiteSpace=wrap;html=1;" vertex="1" parent="1">
          <mxGeometry x="-670" y="480" width="380" height="40" as="geometry" />
        </mxCell>
        <mxCell id="HoEnoRXHbvW5foiIECkT-19" value="&lt;b&gt;&lt;u&gt;Tools&lt;/u&gt;&lt;/b&gt;" style="text;html=1;strokeColor=none;fillColor=none;align=center;verticalAlign=middle;whiteSpace=wrap;rounded=0;" vertex="1" parent="1">
          <mxGeometry x="-760" y="55" width="60" height="30" as="geometry" />
        </mxCell>
      </root>
    </mxGraphModel>
  </diagram>
</mxfile>
